<svg width="173" height="195" viewBox="0 0 173 195" fill="none" xmlns="http://www.w3.org/2000/svg">
<path d="M102.913 29.4163C83.1525 25.244 63.696 37.9166 59.5237 57.6768C55.4311 77.0598 67.2783 95.9481 86.8951 100.799C87.5144 100.851 88.1178 100.979 88.5543 101.15C88.7052 101.181 88.7806 101.197 88.9314 101.229C89.0069 101.245 89.0069 101.245 89.0823 101.261C108.533 104.659 127.005 92.1724 131.173 72.8053C135.345 53.0451 122.673 33.5886 102.913 29.4163Z" fill="#FF6600" fill-opacity="0.1"/>
<path d="M121.878 129.142C103.797 110.671 69.481 103.425 45.3259 112.978C34.3939 117.366 27.2831 124.925 25.3244 134.202C23.3656 143.478 26.8296 153.191 34.9949 161.533C44.0569 170.852 57.1858 177.327 71.0631 180.257C84.9405 183.187 99.5663 182.573 111.622 177.713C122.479 173.308 129.574 165.825 131.548 156.473C133.432 147.18 130.043 137.484 121.878 129.142Z" fill="#FF6600" fill-opacity="0.1"/>
<path d="M177.296 87.1922C175.414 102.079 162.298 112.702 147.527 111.395C147.451 111.38 147.451 111.38 147.376 111.364L147.15 111.316C146.697 111.22 146.245 111.125 145.836 111.196C138.44 110.028 132.222 106.273 128.076 100.907C137.309 95.6087 143.957 86.1402 145.441 74.636C146.202 68.4155 145.269 62.3885 143.105 56.9682C146.273 56.1403 149.783 55.936 153.24 56.3509C168.294 58.19 179.167 71.9882 177.296 87.1922Z" fill="#FF6600" fill-opacity="0.1"/>
<path d="M177.65 160.141C175.502 167.329 169.488 172.677 160.737 175.32C152.319 177.876 142.402 177.83 133.022 175.613C139.487 171.858 143.945 166.417 145.918 160.059C148.647 150.866 146.092 140.951 138.705 131.907C134.496 126.843 129.282 122.433 123.365 118.741C141.052 117.434 161.334 125.104 172.033 138.235C177.794 145.281 179.857 153.044 177.65 160.141Z" fill="#FF6600" fill-opacity="0.1"/>
</svg>
