<svg width="430" height="354" viewBox="0 0 430 354" fill="none" xmlns="http://www.w3.org/2000/svg">
<g clip-path="url(#clip0_276_6294)">
<path d="M-281.04 299.113C-281.04 389.895 -233.165 447.841 -158.48 447.841C-106.228 447.841 -75.5876 417.488 -75.5876 383.273V377.202H-70.3897V441.771H30.2849V292.214C30.2849 198.948 -31.816 136.863 -125.651 136.863C-219.213 136.863 -281.588 193.154 -281.588 298.837L-281.04 299.113ZM-180.366 292.49C-180.366 257.171 -158.48 232.612 -125.378 232.612C-92.2755 232.612 -70.3897 257.171 -70.3897 292.49C-70.3897 327.81 -92.2755 352.368 -125.378 352.368C-158.48 352.368 -180.366 327.81 -180.366 292.49Z" fill="#0000FF"/>
<path d="M276.773 0.550781H227.53C132.6 0.550781 81.1688 56.0136 80.0745 150.107H36.303V199.223H80.0745V448.944H136.43V199.223H244.218V150.107H136.43V144.037C136.43 84.9866 167.891 53.8061 227.804 53.8061H277.047V0.550781H276.773Z" fill="#0000FF"/>
<path d="M406.729 448.945V394.586C323.29 394.586 295.932 366.441 295.932 293.043V204.468H406.729V153.696H295.932V88.0234H239.576V284.764C239.576 398.449 286.904 449.221 406.729 449.221V448.945Z" fill="#0000FF"/>
</g>
<defs>
<clipPath id="clip0_276_6294">
<rect width="430" height="354" fill="white"/>
</clipPath>
</defs>
</svg>
